<svg width="189" height="40" viewBox="0 0 189 40" fill="none" xmlns="http://www.w3.org/2000/svg">
<path d="M14.2105 39.2982H11.2281C4.38597 39.2982 0 35 0 28.5965V10.7018C0 4.29825 4.47368 0 11.2281 0H14.2105C20.9649 0 25.4386 4.29825 25.4386 10.7018V28.5965C25.4386 35 20.9649 39.2982 14.2105 39.2982ZM18.5088 10.7018C18.5088 8.24561 16.6667 6.31579 14.2105 6.31579H11.2281C8.77193 6.31579 6.84211 8.24561 6.84211 10.7018V28.5965C6.84211 31.0526 8.77193 32.9825 11.2281 32.9825H14.2105C16.6667 32.9825 18.5088 31.1404 18.5088 28.5965V10.7018Z" fill="#231F20"/>
<path d="M54.9123 32.0175C54.9123 32.6316 54.0351 34.386 52.0175 36.4912C50.1754 38.3333 47.6316 39.2982 44.2105 39.2982H41.2281C34.386 39.2982 30 35 30 28.5965V10.7018C30 4.29825 34.4737 0 41.2281 0H44.2105C46.9298 0 49.2105 0.614035 51.0526 2.01754C53.5088 3.77193 54.9123 6.49123 54.9123 7.19298C54.9123 7.45614 54.8246 7.54386 54.5614 7.7193L49.2982 10.3509C49.2105 10.4386 49.0351 10.4386 49.0351 10.4386C48.6842 10.4386 48.5088 10.0877 48.1579 9.38596C47.1053 7.36842 45.9649 6.31579 44.2105 6.31579H41.2281C38.7719 6.31579 36.8421 8.24561 36.8421 10.7018V28.5965C36.8421 31.0526 38.7719 32.9825 41.2281 32.9825H44.2105C45.9649 32.9825 47.0175 32.0175 48.0702 30.0877C48.4211 29.386 48.6842 28.9474 48.9474 28.9474C49.0351 28.9474 49.1228 28.9474 49.2105 29.0351L54.4737 31.6667C54.7368 31.6667 54.9123 31.8421 54.9123 32.0175Z" fill="#231F20"/>
<path d="M84.8244 38.1579C84.8244 38.5088 84.5612 38.6842 84.1226 38.6842H77.9823C77.6314 38.6842 77.4559 38.5965 77.3682 38.2456L75.5261 31.9298C75.4384 31.6666 75.263 31.5789 74.9121 31.5789H66.2279C65.877 31.5789 65.7016 31.6666 65.6138 31.9298L63.7717 38.2456C63.684 38.5088 63.5086 38.6842 63.1577 38.6842H57.1051C56.6665 38.6842 56.4033 38.5088 56.4033 38.1579C56.5788 38.0702 67.8945 1.05261 67.8945 1.05261C67.9823 0.789452 68.1577 0.614014 68.5086 0.614014H72.8945C73.1577 0.614014 73.4209 0.701733 73.5086 1.05261C73.5086 1.05261 84.8244 38.0702 84.8244 38.1579ZM70.7016 13.1579C70.263 15 67.8068 24.6491 67.8068 24.7368C67.8068 25.0877 68.07 25.2631 68.5086 25.2631H72.8945C73.3331 25.2631 73.5963 25.0877 73.5963 24.7368C73.5086 24.6491 71.0524 15 70.7016 13.1579Z" fill="#231F20"/>
<path d="M95.0881 10.7018C95.0881 13.5088 97.8951 14.386 102.106 16.3158C108.597 19.2982 111.579 22.6316 111.579 28.5965C111.579 35 107.193 39.2982 100.351 39.2982H97.8951C94.4741 39.2982 91.8425 38.3333 90.0004 36.4912C87.9828 34.4737 87.1934 32.7193 87.1934 32.1053C87.1934 32.0175 87.2811 31.8421 87.5442 31.6667L92.8074 29.0351C92.8951 28.9474 92.9828 28.9474 93.0706 28.9474C93.5091 28.9474 93.5969 29.5614 94.2109 30.7895C94.9127 32.0175 96.4039 32.9825 97.8074 32.9825H100.264C102.632 32.9825 104.65 31.0526 104.65 28.5965C104.65 25.5263 102.106 24.4737 98.1583 22.6316C91.4916 19.386 88.0706 16.6667 88.0706 10.7018C88.0706 4.29825 92.5442 0 99.2986 0H100.176C102.983 0 105.176 0.614035 107.106 2.01754C109.474 3.68421 110.965 6.40351 110.965 7.19298C110.965 7.45614 110.878 7.54386 110.614 7.7193L105.351 10.3509C105.264 10.4386 105.088 10.4386 105.088 10.4386C104.825 10.4386 104.65 10.0877 104.299 9.5614C103.158 7.63158 102.106 6.57895 100.264 6.57895H99.3863C97.1056 6.31579 95.0881 8.24561 95.0881 10.7018Z" fill="#231F20"/>
<path d="M142.193 38.1579C142.193 38.5088 141.929 38.6842 141.491 38.6842H135.35C135 38.6842 134.824 38.5965 134.736 38.2456L132.894 31.9298C132.807 31.6666 132.631 31.5789 132.28 31.5789H123.596C123.245 31.5789 123.07 31.6666 122.982 31.9298L121.14 38.2456C121.052 38.5088 120.877 38.6842 120.526 38.6842H114.473C114.035 38.6842 113.771 38.5088 113.771 38.1579C114.035 38.0702 125.35 1.05261 125.35 1.05261C125.438 0.789452 125.614 0.614014 125.964 0.614014H130.35C130.614 0.614014 130.877 0.701733 130.964 1.05261C130.877 1.05261 142.193 38.0702 142.193 38.1579ZM128.157 13.1579C127.719 15 125.263 24.6491 125.263 24.7368C125.263 25.0877 125.526 25.2631 125.964 25.2631H130.35C130.789 25.2631 131.052 25.0877 131.052 24.7368C130.964 24.6491 128.508 15 128.157 13.1579Z" fill="#231F20"/>
<path d="M187.72 0.526367H150.79C150.351 0.526367 150.176 0.701806 150.176 1.1404V6.75444C150.176 7.19303 150.351 7.36847 150.79 7.36847H176.667L150.439 33.5965C150.176 33.8597 150.176 34.1229 150.439 34.4737L154.386 38.4211C154.649 38.6843 154.913 38.6843 155.264 38.4211L181.492 12.193V38.0702C181.492 38.5088 181.667 38.6843 182.106 38.6843H187.72C188.158 38.6843 188.334 38.5088 188.334 38.0702V1.1404C188.246 0.701806 188.071 0.526367 187.72 0.526367Z" fill="#0099A8"/>
</svg>
